HIERARCHY
ROOT Pelvis
{
	OFFSET 0.000000 0.941512 0.000000
	CHANNELS 6 Xposition Yposition Zposition Zrotation Yrotation Xrotation 
	JOINT Pelvis_L_Hip
	{
		OFFSET 0.000000 0.000000 0.000000
		CHANNELS 3 Zrotation Yrotation Xrotation
		JOINT L_Hip
		{
			OFFSET 0.062321 -0.080322 -0.016990
			CHANNELS 3 Zrotation Yrotation Xrotation
			JOINT L_Knee
			{
				OFFSET 0.093051 -0.381305 -0.029784
				CHANNELS 3 Zrotation Yrotation Xrotation
				JOINT L_Ankle
				{
					OFFSET -0.010371 -0.431000 -0.033614
					CHANNELS 3 Zrotation Yrotation Xrotation
					End Site #name: L_Foot
					{
						OFFSET 0.069299 -0.038670 0.119418
					}
				}
			}
		}
	}
	JOINT Pelvis_R_Hip
	{
		OFFSET 0.000000 0.000000 0.000000
		CHANNELS 3 Zrotation Yrotation Xrotation
		JOINT R_Hip
		{
			OFFSET -0.055334 -0.094904 -0.002373
			CHANNELS 3 Zrotation Yrotation Xrotation
			JOINT R_Knee
			{
				OFFSET -0.064207 -0.384370 -0.019592
				CHANNELS 3 Zrotation Yrotation Xrotation
				JOINT R_Ankle
				{
					OFFSET 0.025418 -0.419734 -0.065953
					CHANNELS 3 Zrotation Yrotation Xrotation
					End Site #name: R_Foot
					{
						OFFSET -0.057233 -0.039888 0.132134
					}
				}
			}
		}
	}
	JOINT Pelvis_Spine1
	{
		OFFSET 0.000000 0.000000 0.000000
		CHANNELS 3 Zrotation Yrotation Xrotation
		JOINT Spine1
		{
			OFFSET -0.005562 0.124093 -0.043360
			CHANNELS 3 Zrotation Yrotation Xrotation
			JOINT Spine2
			{
				OFFSET 0.012244 0.139499 0.029894
				CHANNELS 3 Zrotation Yrotation Xrotation
				JOINT Spine3
				{
					OFFSET -0.002556 0.056561 0.009225
					CHANNELS 3 Zrotation Yrotation Xrotation
					JOINT Spine3_Neck
					{
						OFFSET 0.000000 0.000000 0.000000
						CHANNELS 3 Zrotation Yrotation Xrotation
						JOINT Neck
						{
							OFFSET -0.005205 0.217920 -0.024551
							CHANNELS 3 Zrotation Yrotation Xrotation
							End Site #name: Head
							{
								OFFSET 0.002365 0.091850 0.046637
							}
						}
					}
					JOINT Spine3_L_Collar
					{
						OFFSET 0.000000 0.000000 0.000000
						CHANNELS 3 Zrotation Yrotation Xrotation
						JOINT L_Collar
						{
							OFFSET 0.072225 0.116603 -0.009480
							CHANNELS 3 Zrotation Yrotation Xrotation
							JOINT L_Shoulder
							{
								OFFSET 0.115937 -0.058643 -0.021018
								CHANNELS 3 Zrotation Yrotation Xrotation
								JOINT L_Elbow
								{
									OFFSET 0.021994 -0.254722 -0.024492
									CHANNELS 3 Zrotation Yrotation Xrotation
									End Site #name: L_Wrist
									{
										OFFSET 0.048810 -0.240214 0.103329
									}
								}
							}
						}
					}
					JOINT Spine3_R_Collar
					{
						OFFSET 0.000000 0.000000 0.000000
						CHANNELS 3 Zrotation Yrotation Xrotation
						JOINT R_Collar
						{
							OFFSET -0.073372 0.120704 -0.024611
							CHANNELS 3 Zrotation Yrotation Xrotation
							JOINT R_Shoulder
							{
								OFFSET -0.108089 -0.054969 -0.020504
								CHANNELS 3 Zrotation Yrotation Xrotation
								JOINT R_Elbow
								{
									OFFSET -0.033684 -0.260739 0.009889
									CHANNELS 3 Zrotation Yrotation Xrotation
									End Site #name: R_Wrist
									{
										OFFSET -0.067980 -0.232763 0.118463
									}
								}
							}
						}
					}
				}
			}
		}
	}
}
MOTION
Frames: 8
Frame Time: 0.041667
0.000000 0.960397 0.000000 -4.450092 -0.466876 5.585893 0.000000 0.000000 0.000000 0.742398 -1.204752 -4.879432 3.705662 -0.380682 1.546295 -0.246710 5.040372 3.524132 0.000000 0.000000 0.000000 4.595206 0.727446 -4.794401 -0.927956 0.088100 -0.831750 2.333925 -0.296425 5.511406 0.000000 0.000000 0.000000 5.851794 -0.554913 -5.365346 -1.205777 0.068733 -2.297064 4.074801 1.614143 6.219991 0.000000 0.000000 0.000000 -4.670390 2.387377 -1.818198 0.000000 0.000000 0.000000 19.452522 -9.320128 -2.945318 -21.537841 2.146489 -0.735283 -0.347698 1.147309 6.439091 0.000000 0.000000 0.000000 -24.455760 9.767634 -2.848888 25.489634 -2.010531 7.502624 -3.285596 -2.508575 3.403744 
-0.000104 0.960308 -0.000414 -4.463540 -0.501463 5.591554 0.000000 0.000000 0.000000 0.771897 -1.219126 -4.935934 3.694188 -0.382591 1.596034 -0.271557 5.064535 3.586525 0.000000 0.000000 0.000000 4.613045 0.741825 -4.864736 -0.937727 0.093997 -0.767164 2.347597 -0.233465 5.490979 0.000000 0.000000 0.000000 5.945344 -0.567883 -5.392075 -1.242194 0.063470 -2.486180 4.087176 1.657822 6.209732 0.000000 0.000000 0.000000 -4.634081 2.373309 -1.645001 0.000000 0.000000 0.000000 19.369071 -9.246503 -2.896618 -21.649503 2.184566 -0.641068 -0.400225 1.112536 6.359194 0.000000 0.000000 0.000000 -24.521462 9.777833 -2.852160 25.559698 -2.046511 7.592762 -3.211870 -2.463955 3.360245 
-0.000102 0.960053 -0.001039 -4.457340 -0.539399 5.588319 0.000000 0.000000 0.000000 0.785732 -1.241660 -5.030343 3.660877 -0.386495 1.720147 -0.248102 5.075767 3.552812 0.000000 0.000000 0.000000 4.599877 0.752201 -4.913439 -0.938027 0.095020 -0.752689 2.346053 -0.170096 5.435606 0.000000 0.000000 0.000000 5.991340 -0.572366 -5.419450 -1.262423 0.062564 -2.552356 4.085815 1.665882 6.158857 0.000000 0.000000 0.000000 -4.621169 2.367431 -1.589932 0.000000 0.000000 0.000000 19.297897 -9.159809 -2.840624 -21.776168 2.202854 -0.616959 -0.417356 1.084556 6.248534 0.000000 0.000000 0.000000 -24.528106 9.757830 -2.831226 25.595198 -2.042021 7.584716 -3.158586 -2.399949 3.201679 
-0.000022 0.959875 -0.001917 -4.463395 -0.589127 5.602831 0.000000 0.000000 0.000000 0.801304 -1.260962 -5.110665 3.634131 -0.386139 1.756105 -0.220501 5.111056 3.527845 0.000000 0.000000 0.000000 4.598679 0.779807 -5.045587 -0.945081 0.102827 -0.653776 2.338914 -0.130792 5.386024 0.000000 0.000000 0.000000 6.041526 -0.575390 -5.462666 -1.262394 0.063353 -2.539895 4.047615 1.661410 6.074879 0.000000 0.000000 0.000000 -4.641863 2.377125 -1.587359 0.000000 0.000000 0.000000 19.243382 -9.087730 -2.797583 -21.907812 2.213052 -0.624169 -0.418506 1.055332 6.107041 0.000000 0.000000 0.000000 -24.488342 9.768089 -2.836407 25.584643 -2.019653 7.534884 -3.096213 -2.326113 3.021742 
0.000045 0.959787 -0.003000 -4.498479 -0.647376 5.612360 0.000000 0.000000 0.000000 0.843608 -1.294531 -5.248494 3.609511 -0.391839 1.897720 -0.177361 5.166537 3.488255 0.000000 0.000000 0.000000 4.630440 0.807459 -5.180028 -0.954610 0.110323 -0.565064 2.345752 -0.084420 5.361314 0.000000 0.000000 0.000000 6.100648 -0.595235 -5.400895 -1.266840 0.057665 -2.653433 4.036614 1.650930 6.042073 0.000000 0.000000 0.000000 -4.650879 2.379701 -1.642361 0.000000 0.000000 0.000000 19.190299 -9.025301 -2.762328 -22.015950 2.235352 -0.584484 -0.533969 0.962294 5.848894 0.000000 0.000000 0.000000 -24.465096 9.769933 -2.830774 25.585355 -1.980714 7.432721 -3.032486 -2.259213 2.871620 
0.000071 0.959807 -0.004236 -4.515836 -0.721166 5.614368 0.000000 0.000000 0.000000 0.871947 -1.325278 -5.376681 3.577454 -0.396231 2.029145 -0.141007 5.236532 3.471126 0.000000 0.000000 0.000000 4.640739 0.831984 -5.298121 -0.956766 0.114080 -0.513961 2.371160 -0.034463 5.374566 0.000000 0.000000 0.000000 6.092631 -0.606837 -5.313937 -1.240822 0.050414 -2.720114 4.040347 1.628807 6.004637 0.000000 0.000000 0.000000 -4.674793 2.389969 -1.693145 0.000000 0.000000 0.000000 19.154447 -9.020598 -2.772829 -22.111231 2.255418 -0.552176 -0.640535 0.870892 5.590881 0.000000 0.000000 0.000000 -24.443658 9.795780 -2.841629 25.592004 -1.932660 7.305482 -3.059389 -2.242114 2.753414 
0.000068 0.959701 -0.005570 -4.562981 -0.848011 5.645833 0.000000 0.000000 0.000000 0.933020 -1.353225 -5.488017 3.539430 -0.396294 2.089882 -0.082167 5.348828 3.442815 0.000000 0.000000 0.000000 4.700964 0.888220 -5.570381 -0.994358 0.137950 -0.251932 2.369929 0.040103 5.305946 0.000000 0.000000 0.000000 6.103015 -0.632277 -5.156492 -1.236732 0.043756 -2.832727 4.057535 1.628477 5.975853 0.000000 0.000000 0.000000 -4.668870 2.381482 -1.889387 0.000000 0.000000 0.000000 19.150444 -8.910819 -2.702402 -22.175865 2.289365 -0.459709 -0.908040 0.631307 4.902714 0.000000 0.000000 0.000000 -24.465812 9.814432 -2.838382 25.545238 -1.910599 7.256509 -2.907678 -2.073855 2.369232 
-0.000169 0.959632 -0.006935 -4.657919 -1.058220 5.712529 0.000000 0.000000 0.000000 1.196054 -1.416039 -5.722468 3.337711 -0.393173 2.390024 -0.053449 5.250354 3.331136 0.000000 0.000000 0.000000 4.905463 1.048839 -6.336766 -1.138345 0.237907 0.840755 2.189303 0.034077 4.895896 0.000000 0.000000 0.000000 6.098262 -0.664794 -4.937636 -1.157543 0.029662 -2.893968 4.089112 1.606662 5.902487 0.000000 0.000000 0.000000 -4.657512 2.366416 -2.202491 0.000000 0.000000 0.000000 19.176539 -8.620070 -2.502709 -22.262242 2.395325 -0.128131 -1.379065 0.104672 3.259286 0.000000 0.000000 0.000000 -24.480807 9.887646 -2.867817 25.238786 -1.919369 7.327947 -2.508828 -1.661153 1.503372 
